<svg width="334" height="133" viewBox="0 0 334 133" fill="none" xmlns="http://www.w3.org/2000/svg">
<path d="M88.8207 64.29C88.7545 64.5386 88.6303 64.7678 88.4584 64.9588L88.4382 64.9804L44.6882 111.855L44.688 111.856C44.4468 112.114 44.1278 112.287 43.7795 112.348C43.4312 112.409 43.0725 112.354 42.7579 112.193C42.4434 112.031 42.19 111.772 42.0363 111.453C41.8826 111.135 41.837 110.775 41.9064 110.428L41.9064 110.428L47.6353 81.784L47.8855 80.5332L46.6912 80.0854L24.1794 71.6436L24.1793 71.6435C23.9291 71.5497 23.7059 71.3957 23.5294 71.195C23.353 70.9944 23.2287 70.7534 23.1676 70.4933C23.1066 70.2331 23.1106 69.962 23.1793 69.7038C23.2481 69.4456 23.3794 69.2083 23.5618 69.013L23.5618 69.0129L67.3118 22.1379L67.3121 22.1377C67.5533 21.8791 67.8723 21.7063 68.2206 21.6454C68.569 21.5845 68.9277 21.639 69.2423 21.8004C69.5569 21.9619 69.8102 22.2216 69.9639 22.5401C70.1175 22.8586 70.1631 23.2185 70.0937 23.5652L70.0936 23.5656L64.3647 52.2101L64.1145 53.4609L65.3089 53.9088L87.8206 62.3502L87.8208 62.3503C88.071 62.444 88.2942 62.5981 88.4706 62.7987C88.6471 62.9993 88.7713 63.2404 88.8324 63.5005C88.8935 63.7606 88.8894 64.0318 88.8207 64.29Z" fill="black" stroke="black" stroke-width="3"/>
<path d="M111.256 91V40.24H120.544L137.68 71.416L154.744 40.24H163.888V91H153.736V60.04L140.632 83.368H134.368L121.336 60.256V91H111.256ZM185.198 91.792C182.558 91.792 180.23 91.288 178.214 90.28C176.198 89.272 174.59 87.904 173.39 86.176C172.238 84.448 171.662 82.504 171.662 80.344C171.662 77.8 172.334 75.76 173.678 74.224C175.022 72.688 177.206 71.608 180.23 70.984C183.254 70.312 187.262 69.976 192.254 69.976H194.846V68.752C194.846 66.64 194.366 65.152 193.406 64.288C192.446 63.376 190.814 62.92 188.51 62.92C186.59 62.92 184.55 63.232 182.39 63.856C180.278 64.432 178.166 65.32 176.054 66.52L173.102 59.248C174.35 58.432 175.862 57.688 177.638 57.016C179.462 56.344 181.358 55.84 183.326 55.504C185.294 55.12 187.166 54.928 188.942 54.928C194.414 54.928 198.494 56.176 201.182 58.672C203.87 61.12 205.214 64.936 205.214 70.12V91H195.062V85.672C194.342 87.544 193.118 89.032 191.39 90.136C189.71 91.24 187.646 91.792 185.198 91.792ZM187.646 84.52C189.662 84.52 191.366 83.824 192.758 82.432C194.15 81.04 194.846 79.24 194.846 77.032V75.592H192.326C188.63 75.592 186.014 75.928 184.478 76.6C182.942 77.224 182.174 78.328 182.174 79.912C182.174 81.256 182.63 82.36 183.542 83.224C184.502 84.088 185.87 84.52 187.646 84.52ZM212.892 48.808V38.656H224.628V48.808H212.892ZM213.324 91V55.648H224.196V91H213.324ZM245.766 91.792C241.206 91.792 237.87 90.616 235.758 88.264C233.646 85.864 232.59 82.312 232.59 77.608V40.24H243.462V77.176C243.462 81.016 245.166 82.936 248.574 82.936C249.102 82.936 249.606 82.912 250.086 82.864C250.614 82.816 251.118 82.72 251.598 82.576L251.454 91C249.63 91.528 247.734 91.792 245.766 91.792Z" fill="black"/>
</svg>
