<svg width="500" height="500" viewBox="0 0 500 500" fill="none" xmlns="http://www.w3.org/2000/svg">
<path d="M197.827 478.371L197.827 478.371C195.73 480.619 192.958 482.121 189.93 482.65C186.903 483.179 183.785 482.706 181.05 481.302C178.316 479.899 176.114 477.642 174.778 474.874C173.442 472.106 173.046 468.978 173.649 465.964L172.336 465.702L173.649 465.964L202.293 322.743L202.543 321.493L201.349 321.045L88.7904 278.836L88.2796 280.198L88.7902 278.836C86.6155 278.02 84.6753 276.682 83.1416 274.938C81.6078 273.194 80.5277 271.098 79.9969 268.837C79.4661 266.576 79.5011 264.219 80.0986 261.975C80.6962 259.731 81.8379 257.669 83.4227 255.971L83.4228 255.971L302.173 21.5957L302.173 21.5955C304.27 19.3479 307.042 17.8456 310.07 17.3166C313.098 16.7875 316.216 17.2606 318.951 18.6641C321.686 20.0676 323.888 22.3248 325.223 25.0933C326.559 27.8618 326.955 30.9903 326.351 34.0043L326.351 34.0047L297.707 177.227L297.457 178.478L298.651 178.926L411.21 221.133L411.687 219.86L411.21 221.133C413.385 221.948 415.325 223.287 416.858 225.031C418.392 226.775 419.472 228.87 420.003 231.131C420.534 233.392 420.499 235.749 419.901 237.994C419.304 240.237 418.162 242.298 416.577 243.996L417.627 244.976L416.577 243.996L197.827 478.371Z" fill="black" stroke="black" stroke-width="3"/>
</svg>
